<svg width="160" height="172" viewBox="0 0 160 172" fill="none" xmlns="http://www.w3.org/2000/svg">
<g clip-path="url(#clip0_28_131)">
<g filter="url(#filter0_d_28_131)">
<path d="M24 5C24 2.23858 26.2386 0 29 0H128L160 39V167C160 169.761 157.761 172 155 172H29C26.2386 172 24 169.761 24 167V5Z" fill="#F4F4F4"/>
</g>
<path d="M24 81C24 78.2386 26.2386 76 29 76H119C121.761 76 124 78.2386 124 81V134C124 136.761 121.761 139 119 139H24V81Z" fill="#E2E2E2"/>
<rect y="69" width="124" height="63" rx="5" fill="#94C2C6"/>
<path d="M33.5469 103.617H24.4297V99.9375H33.5469C35.3125 99.9375 36.7422 99.6562 37.8359 99.0938C38.9297 98.5312 39.7266 97.75 40.2266 96.75C40.7422 95.75 41 94.6094 41 93.3281C41 92.1562 40.7422 91.0547 40.2266 90.0234C39.7266 88.9922 38.9297 88.1641 37.8359 87.5391C36.7422 86.8984 35.3125 86.5781 33.5469 86.5781H25.4844V117H20.9609V82.875H33.5469C36.125 82.875 38.3047 83.3203 40.0859 84.2109C41.8672 85.1016 43.2188 86.3359 44.1406 87.9141C45.0625 89.4766 45.5234 91.2656 45.5234 93.2812C45.5234 95.4688 45.0625 97.3359 44.1406 98.8828C43.2188 100.43 41.8672 101.609 40.0859 102.422C38.3047 103.219 36.125 103.617 33.5469 103.617ZM60.4766 117H53.3516L53.3984 113.32H60.4766C62.9141 113.32 64.9453 112.812 66.5703 111.797C68.1953 110.766 69.4141 109.328 70.2266 107.484C71.0547 105.625 71.4688 103.453 71.4688 100.969V98.8828C71.4688 96.9297 71.2344 95.1953 70.7656 93.6797C70.2969 92.1484 69.6094 90.8594 68.7031 89.8125C67.7969 88.75 66.6875 87.9453 65.375 87.3984C64.0781 86.8516 62.5859 86.5781 60.8984 86.5781H53.2109V82.875H60.8984C63.1328 82.875 65.1719 83.25 67.0156 84C68.8594 84.7344 70.4453 85.8047 71.7734 87.2109C73.1172 88.6016 74.1484 90.2891 74.8672 92.2734C75.5859 94.2422 75.9453 96.4609 75.9453 98.9297V100.969C75.9453 103.438 75.5859 105.664 74.8672 107.648C74.1484 109.617 73.1094 111.297 71.75 112.688C70.4062 114.078 68.7812 115.148 66.875 115.898C64.9844 116.633 62.8516 117 60.4766 117ZM55.7656 82.875V117H51.2422V82.875H55.7656ZM87.2656 82.875V117H82.7422V82.875H87.2656ZM101.562 98.2266V101.93H86.2812V98.2266H101.562ZM103.883 82.875V86.5781H86.2812V82.875H103.883Z" fill="white"/>
<path d="M160 68.5L128.702 30.5736L160 39V68.5Z" fill="#E2E2E2"/>
<path d="M128 0L160.088 39H133C130.239 39 128 36.7614 128 34V0Z" fill="#BEBEBE"/>
</g>
<defs>
<filter id="filter0_d_28_131" x="6" y="-14" width="172" height="208" filterUnits="userSpaceOnUse" color-interpolation-filters="sRGB">
<feFlood flood-opacity="0" result="BackgroundImageFix"/>
<feColorMatrix in="SourceAlpha" type="matrix" values="0 0 0 0 0 0 0 0 0 0 0 0 0 0 0 0 0 0 127 0" result="hardAlpha"/>
<feOffset dy="4"/>
<feGaussianBlur stdDeviation="9"/>
<feComposite in2="hardAlpha" operator="out"/>
<feColorMatrix type="matrix" values="0 0 0 0 0.625179 0 0 0 0 0.625179 0 0 0 0 0.625179 0 0 0 0.25 0"/>
<feBlend mode="normal" in2="BackgroundImageFix" result="effect1_dropShadow_28_131"/>
<feBlend mode="normal" in="SourceGraphic" in2="effect1_dropShadow_28_131" result="shape"/>
</filter>
<clipPath id="clip0_28_131">
<rect width="160" height="172" fill="white"/>
</clipPath>
</defs>
</svg>
