<?xml version="1.0" standalone="no"?>
<!DOCTYPE svg PUBLIC "-//W3C//DTD SVG 20010904//EN"
 "http://www.w3.org/TR/2001/REC-SVG-20010904/DTD/svg10.dtd">
<svg version="1.0" xmlns="http://www.w3.org/2000/svg"
 width="840.000000pt" height="859.000000pt" viewBox="0 0 840.000000 859.000000"
 preserveAspectRatio="xMidYMid meet">

<g transform="translate(0.000000,859.000000) scale(0.100000,-0.100000)"
fill="#000000" stroke="none">
<path d="M2420 8539 c-25 -5 -56 -14 -70 -21 -38 -19 -119 -101 -120 -120 0
-9 -4 -20 -10 -23 -5 -3 -10 -42 -10 -87 0 -66 4 -89 25 -131 46 -90 134 -146
228 -147 44 0 117 -39 141 -75 18 -27 22 -135 6 -135 -5 0 -10 -6 -10 -14 0
-8 -16 -28 -35 -45 -31 -27 -43 -31 -91 -31 -51 0 -57 3 -99 45 -36 35 -45 52
-45 78 0 66 -58 107 -102 73 -42 -31 -11 -162 55 -237 54 -61 85 -74 182 -74
77 0 96 4 135 25 108 60 140 114 140 232 0 104 -29 173 -93 217 -25 17 -52 31
-59 31 -8 0 -18 4 -23 9 -6 4 -43 13 -84 20 -59 9 -80 17 -100 39 -34 36 -51
75 -51 118 0 43 14 71 54 106 27 24 40 28 92 28 58 0 64 -2 103 -39 33 -31 41
-46 41 -73 0 -43 33 -88 63 -88 40 1 57 23 57 73 0 89 -71 202 -145 232 -44
18 -123 25 -175 14z"/>
<path d="M3964 8536 c-18 -14 -19 -32 -22 -456 -2 -387 -1 -446 13 -466 l15
-24 236 0 c143 0 243 4 255 10 26 15 26 70 -1 93 -18 15 -45 17 -210 17 l-190
0 0 408 0 409 -25 11 c-34 16 -47 15 -71 -2z"/>
<path d="M3065 8193 c-22 -2 -44 -9 -49 -14 -6 -5 -18 -9 -28 -9 -10 0 -18 -4
-18 -10 0 -5 -6 -10 -14 -10 -17 0 -106 -89 -106 -106 0 -8 -4 -14 -9 -14 -9
0 -19 -37 -28 -109 -6 -47 14 -151 29 -151 4 0 8 -7 8 -15 0 -22 117 -135 139
-135 11 0 23 -4 26 -10 3 -5 45 -10 92 -10 76 0 91 3 141 31 94 50 137 107
162 211 15 65 5 119 -38 198 -64 119 -164 168 -307 153z m120 -133 c77 -29
133 -169 90 -226 -8 -10 -15 -25 -15 -33 -1 -43 -154 -116 -174 -82 -3 4 -19
11 -35 14 -37 8 -110 82 -113 116 -6 85 20 152 74 195 27 21 44 26 90 26 31 0
68 -4 83 -10z"/>
<path d="M4820 8193 c-130 -19 -234 -106 -260 -215 -20 -90 -5 -195 35 -243
68 -81 81 -95 92 -95 7 0 13 -4 13 -8 0 -17 86 -37 155 -36 50 0 82 7 114 22
55 27 68 27 76 3 8 -26 35 -34 68 -22 35 14 41 51 35 235 -5 151 -6 152 -39
206 -19 30 -47 66 -62 79 -16 14 -35 31 -42 38 -8 7 -20 13 -27 13 -8 0 -18 4
-23 9 -12 10 -100 20 -135 14z m120 -144 c73 -41 105 -151 68 -229 -28 -59
-99 -110 -153 -110 -58 0 -149 65 -175 125 -16 37 -17 49 -6 82 33 108 84 152
175 153 36 0 65 -7 91 -21z"/>
<path d="M5752 8184 c-21 -15 -22 -21 -22 -189 0 -169 1 -175 27 -227 33 -64
83 -115 141 -146 60 -30 184 -31 244 -2 23 11 48 20 55 20 15 0 17 -16 3 -25
-5 -3 -10 -13 -10 -21 0 -8 -5 -20 -10 -27 -38 -45 -48 -54 -72 -70 -35 -22
-109 -22 -151 -1 -34 18 -68 52 -95 97 -18 30 -43 34 -85 15 -38 -18 -43 -47
-18 -104 35 -79 107 -132 203 -149 40 -8 175 11 184 26 3 5 13 9 22 9 9 0 41
26 72 58 85 90 90 113 90 438 -1 196 -4 273 -13 285 -20 26 -55 33 -82 15 -25
-16 -25 -19 -25 -159 0 -194 -18 -241 -113 -293 -44 -23 -53 -25 -86 -16 -20
6 -46 14 -57 17 -12 3 -34 17 -48 32 -50 50 -56 74 -56 238 0 138 -2 153 -20
173 -24 26 -47 28 -78 6z"/>
<path d="M5230 8110 l0 -60 125 0 c118 0 125 -1 125 -20 0 -11 -3 -20 -7 -20
-5 0 -19 -17 -33 -37 -14 -20 -29 -41 -35 -47 -5 -6 -23 -29 -40 -51 -29 -39
-42 -55 -77 -97 -10 -12 -18 -24 -18 -27 0 -3 -14 -22 -30 -41 -33 -38 -43
-65 -38 -101 l3 -24 240 0 240 0 3 51 c4 63 3 64 -159 61 -91 -2 -119 1 -119
11 0 15 28 59 55 88 11 11 31 37 45 57 14 20 28 37 33 37 4 0 7 5 7 11 0 6 6
16 13 24 6 7 21 25 32 41 11 15 25 32 30 38 40 42 56 78 53 118 l-3 43 -222 3
-223 2 0 -60z"/>
<path d="M5298 6022 c-27 -2 -47 -13 -73 -39 -19 -19 -35 -39 -35 -44 0 -12
-83 -12 -95 0 -11 10 -17 11 -245 36 -80 9 -190 21 -245 27 -137 15 -836 16
-1005 0 -148 -13 -318 -35 -392 -52 -122 -26 -290 -60 -347 -70 -52 -9 -55 -8
-88 20 -29 26 -42 30 -92 30 -70 0 -99 -19 -129 -83 -22 -47 -42 -63 -137
-113 -121 -63 -211 -116 -225 -134 -3 -4 -20 -15 -38 -25 -17 -11 -32 -23 -32
-27 0 -4 -4 -8 -10 -8 -9 0 -42 -25 -76 -57 -7 -7 -15 -13 -18 -13 -6 0 -39
-25 -68 -52 -10 -10 -20 -18 -23 -18 -7 0 -269 -264 -297 -300 -14 -19 -35
-45 -45 -56 -10 -12 -31 -39 -48 -60 -16 -20 -36 -43 -43 -50 -6 -7 -12 -17
-12 -22 0 -6 -4 -12 -8 -14 -4 -1 -31 -34 -59 -73 -29 -38 -57 -75 -63 -82 -5
-7 -10 -15 -10 -18 0 -3 -9 -15 -20 -27 -11 -12 -20 -28 -20 -35 0 -7 -3 -13
-8 -13 -4 0 -16 -16 -26 -35 -11 -19 -23 -35 -28 -35 -4 0 -8 -6 -8 -13 0 -8
-17 -39 -37 -71 l-38 -57 -80 6 c-108 8 -231 -12 -312 -51 -36 -18 -38 -22
-38 -64 0 -41 2 -45 26 -48 15 -2 62 8 105 22 80 26 234 37 234 17 0 -5 -14
-37 -31 -70 l-31 -61 -54 0 c-29 0 -56 -4 -59 -10 -3 -5 -19 -10 -35 -10 -16
0 -32 -4 -35 -10 -3 -5 -13 -10 -21 -10 -20 0 -94 -33 -94 -42 0 -5 -5 -8 -11
-8 -6 0 -27 -17 -46 -37 -28 -31 -33 -43 -29 -68 4 -16 12 -33 19 -37 14 -10
54 -2 73 15 33 29 44 37 54 37 5 0 10 5 10 10 0 6 9 10 20 10 11 0 20 4 20 9
0 8 22 15 98 28 26 4 32 2 32 -13 0 -19 -38 -132 -50 -149 -4 -5 -14 -46 -24
-90 -9 -44 -21 -94 -26 -111 -6 -17 -10 -42 -10 -57 0 -15 -4 -27 -9 -27 -5 0
-11 -24 -14 -52 -3 -29 -13 -120 -21 -203 -23 -211 -9 -290 58 -339 51 -38
156 -60 171 -36 3 6 22 10 41 10 44 0 201 48 266 81 24 12 58 11 58 -1 0 -5 4
-10 10 -10 9 0 120 -67 130 -79 3 -3 19 -13 35 -21 17 -8 44 -25 61 -37 17
-13 35 -23 39 -23 4 0 23 -11 41 -25 18 -14 37 -25 43 -25 6 0 11 -4 11 -10 0
-5 7 -10 15 -10 9 0 25 -8 36 -19 11 -10 37 -27 59 -37 22 -10 40 -22 40 -26
0 -5 7 -8 15 -8 8 0 15 -3 15 -7 0 -5 24 -21 53 -37 88 -50 86 -46 98 -202 15
-200 38 -277 98 -322 30 -23 44 -27 105 -27 63 0 86 5 161 35 34 14 98 42 139
61 22 11 45 19 52 19 7 0 14 3 16 8 4 10 115 62 132 62 8 0 16 3 18 8 2 4 30
20 63 36 33 16 71 37 85 46 46 31 81 31 270 0 194 -31 504 -70 715 -90 55 -5
150 -14 210 -20 61 -5 259 -13 440 -16 327 -6 512 3 750 37 39 5 90 12 115 15
25 3 49 10 54 15 6 5 19 9 30 9 43 0 165 34 218 61 10 5 25 9 33 9 8 0 23 4
33 9 9 5 40 17 67 26 28 9 59 20 70 25 48 20 103 43 141 61 22 10 45 19 51 19
6 0 13 3 15 8 2 4 23 17 48 29 50 25 102 55 110 64 3 3 13 9 23 12 46 17 249
168 318 237 110 108 103 104 136 86 15 -8 42 -28 60 -43 18 -15 49 -41 69 -58
67 -55 177 -159 240 -226 83 -88 151 -142 239 -190 50 -27 71 -32 130 -33 58
-1 76 3 102 22 17 12 35 22 40 22 12 1 63 76 63 94 0 9 5 16 10 16 13 0 13 95
-1 139 -39 129 -128 251 -329 451 -58 58 -130 125 -159 150 -29 25 -59 51 -66
58 -8 6 -18 12 -23 12 -6 0 -12 4 -14 9 -3 9 -122 85 -172 111 -56 28 -68 63
-62 175 5 117 -8 319 -30 454 -9 53 -18 113 -21 134 -3 20 -9 40 -14 43 -5 3
-9 15 -9 26 0 24 -27 124 -41 150 -5 10 -9 25 -9 33 0 8 -4 23 -9 33 -9 16
-30 63 -68 152 -8 19 -20 46 -26 60 -13 29 -127 213 -137 220 -3 3 -19 23 -35
45 -17 22 -32 42 -35 45 -3 3 -18 23 -34 45 -53 72 -284 295 -306 295 -5 0
-10 4 -10 8 0 8 -146 111 -195 138 -11 6 -42 24 -70 39 -27 14 -54 31 -59 36
-6 5 -18 9 -28 9 -10 0 -18 5 -18 10 0 6 -4 10 -10 10 -5 0 -42 16 -81 35 -40
19 -78 35 -86 35 -7 0 -21 4 -31 10 -9 5 -33 16 -53 24 -30 12 -38 21 -49 62
-16 57 -49 114 -67 114 -7 0 -13 4 -13 9 0 10 -59 17 -112 13z m59 -124 c6 -7
15 -43 21 -81 12 -76 27 -97 71 -97 28 0 44 -5 116 -36 17 -7 44 -18 60 -24
58 -21 85 -35 85 -42 0 -5 6 -8 12 -8 16 0 122 -53 126 -62 2 -5 8 -8 13 -8 5
0 33 -16 63 -35 30 -19 59 -35 65 -35 5 0 11 -3 13 -7 4 -10 75 -63 84 -63 4
0 14 -8 23 -18 9 -9 38 -35 65 -57 93 -74 191 -181 281 -305 22 -30 45 -61 52
-68 19 -20 109 -174 133 -229 12 -26 28 -61 36 -77 8 -16 14 -36 14 -46 0 -9
4 -20 9 -25 4 -6 16 -35 26 -65 10 -30 21 -64 25 -75 16 -43 45 -186 69 -335
28 -174 19 -643 -14 -770 -9 -36 -19 -77 -22 -92 -3 -16 -9 -28 -14 -28 -5 0
-9 -5 -9 -10 0 -12 -13 -27 -92 -110 -67 -70 -164 -155 -210 -185 -9 -5 -47
-31 -85 -56 -109 -73 -286 -169 -309 -169 -7 0 -14 -3 -16 -7 -1 -5 -28 -17
-58 -27 -30 -10 -73 -27 -95 -36 -172 -75 -589 -174 -657 -157 -17 5 -27 19
-37 52 -7 25 -19 52 -25 58 -6 7 -12 18 -14 25 -4 21 -59 70 -105 94 -35 19
-58 23 -132 23 -76 0 -96 -4 -129 -23 -42 -25 -75 -60 -76 -79 0 -7 -4 -13
-10 -13 -5 0 -10 -9 -10 -19 0 -11 -4 -22 -8 -25 -5 -3 -14 -30 -22 -59 l-13
-55 -46 -4 c-25 -2 -84 -1 -131 2 l-85 5 -7 45 c-25 147 -158 247 -309 233
-49 -4 -146 -47 -169 -74 -41 -47 -50 -60 -50 -69 0 -6 -5 -20 -12 -33 -6 -12
-14 -29 -18 -37 -9 -18 -59 -19 -180 -1 -47 6 -116 16 -155 21 -111 14 -203
28 -305 45 -175 30 -158 32 -261 -22 -52 -26 -95 -51 -97 -55 -2 -5 -8 -8 -13
-8 -14 0 -124 -53 -127 -62 -2 -4 -10 -8 -19 -8 -8 0 -27 -6 -41 -14 -42 -21
-144 -67 -212 -94 -153 -60 -176 -37 -191 192 -4 72 -11 156 -15 187 -6 54 6
113 37 171 13 26 11 51 -7 87 -17 35 -75 65 -106 55 -25 -8 -64 -51 -84 -92
-8 -18 -23 -36 -31 -39 -17 -7 -83 24 -83 39 0 4 -6 8 -14 8 -27 0 -26 32 4
93 30 62 42 157 20 157 -5 0 -10 5 -10 11 0 19 -33 38 -66 39 -36 0 -80 -39
-110 -97 -38 -75 -51 -78 -124 -30 -54 35 -59 50 -34 99 9 18 17 55 18 84 1
63 -25 98 -82 108 -51 8 -111 -33 -112 -76 0 -10 -4 -18 -10 -18 -5 0 -10 -10
-10 -23 0 -28 -15 -37 -125 -71 -49 -16 -99 -32 -110 -36 -91 -35 -200 -45
-228 -21 -9 7 -19 31 -22 55 -9 61 17 314 44 426 6 25 20 86 32 135 19 83 39
149 59 200 4 11 13 36 20 55 31 91 88 215 145 315 15 28 38 68 50 90 38 69 69
119 82 133 7 7 13 19 13 27 0 7 4 15 8 17 8 3 102 136 102 144 0 3 11 16 25
30 14 14 25 28 25 33 0 4 8 16 18 27 9 10 30 37 47 59 16 22 34 45 40 51 5 7
19 22 29 35 114 143 266 293 406 401 19 14 58 45 87 67 29 23 55 41 58 41 3 0
18 11 33 25 15 14 32 25 39 25 7 0 13 5 13 10 0 6 6 10 14 10 8 0 16 4 18 8 4
11 98 62 114 62 8 0 14 4 14 9 0 19 60 24 79 7 22 -20 65 -21 81 -1 6 8 16 45
20 82 11 86 18 103 40 103 20 0 27 -13 49 -90 19 -65 49 -88 94 -71 24 9 27
16 27 54 0 40 3 44 33 55 18 7 45 12 58 12 14 0 29 4 35 9 5 5 27 11 49 14 22
3 63 10 90 16 234 46 265 51 530 75 217 20 662 20 885 0 91 -8 210 -19 265
-23 104 -9 176 -20 284 -42 46 -10 73 -22 99 -46 63 -58 106 -36 118 63 6 43
24 74 45 74 3 0 11 -6 16 -12z m1792 -2565 c76 -62 75 -60 61 -96 -20 -52 -63
-141 -75 -154 -30 -36 -35 -43 -35 -48 0 -11 -28 -35 -40 -35 -6 0 -29 15 -50
33 -40 32 -49 60 -31 95 16 30 28 65 57 155 32 102 42 107 113 50z m305 -279
c9 -3 16 -10 16 -15 0 -5 8 -17 18 -27 73 -78 73 -85 0 -192 -35 -51 -75 -99
-90 -108 -28 -16 -28 -16 -83 38 -30 30 -55 59 -55 65 0 6 8 18 18 26 33 31
102 130 102 149 0 5 4 10 8 10 4 0 13 14 19 30 12 31 19 35 47 24z"/>
<path d="M3390 5108 c-49 -34 -74 -90 -78 -176 -5 -84 5 -102 53 -102 40 0 51
13 60 70 11 77 25 110 45 110 15 0 20 -13 30 -72 18 -113 16 -109 63 -106 39
3 43 6 56 44 28 82 -16 201 -90 239 -42 22 -101 19 -139 -7z"/>
<path d="M5926 5113 c-67 -36 -98 -91 -100 -177 0 -64 15 -86 59 -86 40 0 49
10 64 82 9 42 18 59 32 63 36 12 49 -11 47 -86 0 -38 1 -71 3 -73 2 -2 18 -7
35 -10 23 -5 36 -2 54 14 23 20 25 29 25 107 0 60 -4 88 -12 90 -7 3 -13 10
-13 17 0 28 -86 76 -137 76 -15 -1 -41 -8 -57 -17z"/>
<path d="M1568 4123 c-31 -5 -88 -56 -88 -79 0 -8 -6 -23 -12 -34 -10 -16 -10
-24 0 -40 6 -11 12 -27 12 -35 0 -20 44 -65 64 -65 8 0 18 -4 21 -10 3 -5 19
-10 35 -10 16 0 32 5 35 10 3 6 14 10 23 10 9 1 29 17 45 37 22 29 27 47 27
90 0 29 -4 53 -8 53 -5 0 -14 10 -21 23 -21 40 -73 59 -133 50z"/>
<path d="M2088 3893 c-22 -6 -29 -26 -35 -107 -2 -38 -8 -77 -14 -87 -5 -10
-9 -36 -9 -58 0 -30 6 -44 22 -55 31 -22 52 -20 107 8 52 26 76 37 140 60 24
9 50 23 58 32 20 20 9 59 -21 80 -23 14 -30 14 -90 -4 -67 -20 -82 -17 -71 17
8 25 -10 102 -27 112 -14 9 -32 10 -60 2z"/>
<path d="M2650 3396 c-72 -23 -100 -58 -100 -129 0 -63 23 -102 77 -127 53
-25 53 -25 106 0 90 42 104 173 24 229 -44 32 -70 38 -107 27z"/>
<path d="M3180 3144 c-8 -8 -13 -29 -13 -46 0 -37 31 -63 84 -72 40 -6 136
-54 186 -92 17 -13 34 -24 38 -24 3 0 30 -25 60 -55 58 -60 79 -66 113 -35 37
34 28 65 -36 129 -54 55 -202 161 -224 161 -6 0 -24 6 -41 14 -74 31 -90 36
-121 36 -19 0 -39 -7 -46 -16z"/>
<path d="M3032 2930 c-12 -12 -22 -32 -22 -45 0 -25 35 -65 57 -65 7 0 13 -4
13 -10 0 -5 5 -10 10 -10 12 0 102 -65 135 -97 11 -11 34 -36 50 -57 70 -88
93 -104 125 -84 57 36 30 108 -85 223 -70 70 -210 164 -246 165 -8 0 -25 -9
-37 -20z"/>
<path d="M3642 860 c-7 -12 -12 -56 -12 -115 l0 -95 -30 0 c-69 0 -107 -45
-80 -96 11 -20 21 -24 62 -24 l48 0 0 -117 c0 -70 5 -132 13 -153 46 -127 132
-200 252 -214 65 -8 95 11 95 58 0 43 -13 53 -80 62 -45 6 -60 14 -94 48 -50
50 -66 100 -66 205 0 116 -5 111 114 111 113 0 126 6 126 57 0 45 -26 57 -140
63 l-95 5 -5 100 c-3 55 -9 106 -13 113 -14 20 -80 15 -95 -8z"/>
<path d="M3356 829 c-5 -16 -18 -181 -20 -259 -1 -48 1 -55 19 -58 69 -10 125
203 75 286 -11 17 -24 32 -29 32 -5 0 -16 3 -25 6 -9 3 -18 0 -20 -7z"/>
<path d="M1655 640 c-49 -10 -125 -42 -125 -52 0 -5 -5 -8 -10 -8 -16 0 -66
-52 -91 -95 -20 -34 -23 -54 -24 -136 0 -109 19 -159 85 -227 57 -58 181 -104
225 -84 14 7 36 12 49 12 35 0 117 47 159 92 40 43 50 96 23 124 -27 27 -60
16 -118 -40 -48 -45 -64 -54 -105 -60 -89 -11 -147 21 -184 101 -23 52 -24
114 -2 156 18 36 34 51 78 71 87 41 139 31 214 -40 31 -30 65 -54 76 -54 34 1
55 24 55 62 0 29 -9 45 -47 85 -49 50 -88 73 -158 92 -44 12 -44 12 -100 1z"/>
<path d="M2275 635 c-80 -20 -107 -35 -165 -94 -36 -37 -59 -71 -67 -98 -16
-52 -16 -157 0 -200 34 -92 132 -177 233 -203 59 -15 115 -4 192 36 23 12 42
19 42 16 0 -4 11 -19 24 -34 22 -27 46 -37 46 -20 0 4 10 12 23 17 22 10 22
13 22 190 l0 180 -32 55 c-35 59 -77 108 -110 126 -19 12 -138 45 -151 43 -4
-1 -29 -7 -57 -14z m158 -147 c32 -23 77 -113 77 -154 0 -67 -76 -158 -141
-168 -46 -7 -109 1 -109 15 0 5 -6 9 -13 9 -19 0 -71 50 -85 83 -37 85 26 217
113 240 39 11 127 -3 158 -25z"/>
<path d="M2716 625 l-26 -24 0 -259 c0 -246 1 -259 20 -280 24 -26 47 -28 78
-6 21 14 22 22 22 160 0 79 4 152 9 162 5 9 15 30 22 46 23 48 65 84 109 91
46 8 117 -2 137 -19 36 -30 63 -62 63 -78 0 -9 4 -18 10 -20 5 -2 12 -69 16
-153 7 -206 4 -197 62 -193 l47 3 3 177 c2 171 2 178 -23 235 -16 35 -45 76
-74 104 -40 38 -60 48 -120 63 -69 17 -76 17 -142 1 -38 -10 -72 -21 -75 -26
-9 -16 -33 -10 -58 16 -31 31 -46 31 -80 0z"/>
<path d="M4402 638 l-22 -11 2 -286 3 -286 42 -3 c32 -2 44 1 51 15 5 10 12
101 14 202 3 104 10 186 15 190 6 3 13 16 17 29 12 37 42 27 65 -23 19 -40 21
-63 21 -212 1 -186 6 -204 59 -205 57 -2 61 9 61 175 0 82 5 168 11 191 14 50
31 89 44 98 12 9 35 -10 35 -28 0 -8 4 -14 8 -14 14 0 32 -154 32 -276 0 -80
4 -124 12 -132 7 -7 29 -12 49 -12 28 0 39 5 44 19 10 32 7 344 -4 401 -14 70
-56 128 -113 159 -42 23 -49 24 -86 12 -22 -8 -52 -25 -67 -38 l-26 -25 -22
25 c-35 39 -87 53 -137 37 -31 -10 -43 -11 -52 -2 -14 14 -26 14 -56 0z"/>
<path d="M5275 636 c-91 -23 -161 -74 -207 -152 -19 -33 -23 -53 -23 -136 0
-64 4 -101 13 -110 6 -6 12 -20 12 -30 0 -10 3 -18 8 -18 4 0 20 -20 36 -44
16 -24 45 -51 65 -61 20 -9 44 -21 53 -26 23 -12 183 -12 206 0 9 5 24 12 32
15 43 17 130 98 130 122 0 8 5 14 10 14 6 0 10 11 10 24 0 14 5 28 10 31 13 8
13 129 1 153 -5 9 -17 34 -26 55 -35 80 -105 140 -190 162 -65 17 -74 17 -140
1z m113 -122 c68 -14 140 -121 129 -191 -8 -45 -41 -98 -84 -130 -68 -52 -184
-26 -245 54 -50 65 -32 164 41 235 36 34 92 45 159 32z"/>
<path d="M5665 638 c-52 -29 -47 -48 80 -304 58 -116 105 -217 105 -223 0 -6
5 -11 10 -11 6 0 10 -5 10 -11 0 -13 38 -49 51 -49 39 0 59 25 120 147 35 70
67 130 71 131 5 2 8 9 8 16 0 6 23 57 50 113 64 130 69 154 39 182 -12 11 -30
21 -38 21 -20 -1 -51 -24 -51 -38 0 -6 -3 -12 -7 -14 -10 -4 -153 -293 -153
-307 0 -6 -4 -11 -10 -11 -5 0 -10 -7 -10 -16 0 -28 -24 0 -51 58 -13 29 -27
55 -31 56 -5 2 -8 9 -8 15 0 21 -101 209 -128 240 -18 20 -29 21 -57 5z"/>
<path d="M6444 631 c-83 -24 -166 -79 -192 -128 -65 -120 -52 -265 31 -355 50
-55 117 -98 151 -98 14 0 28 -5 31 -10 8 -13 118 -13 159 -1 17 5 45 13 61 18
26 7 30 14 33 46 5 64 -7 71 -128 65 -118 -6 -146 -2 -185 27 -23 17 -55 63
-55 80 0 3 96 5 213 5 247 1 247 1 247 78 0 47 -25 122 -42 130 -5 2 -8 9 -8
15 -1 17 -70 90 -100 105 -32 16 -121 42 -140 41 -8 0 -42 -8 -76 -18z m166
-141 c26 -18 60 -67 60 -85 0 -3 -72 -5 -160 -5 -88 0 -160 3 -160 8 0 24 46
76 83 93 53 25 133 20 177 -11z"/>
</g>
</svg>
